<?xml version="1.0" encoding="UTF-8"?>
<svg xmlns="http://www.w3.org/2000/svg" xmlns:xlink="http://www.w3.org/1999/xlink" width="1080" height="576" viewBox="0 0 1080 576">
<defs>
<g>
<g id="glyph-0-0">
<path d="M 0.28125 0 L 0.28125 -6.3125 L 5.296875 -6.3125 L 5.296875 0 Z M 4.5 -0.796875 L 4.5 -5.515625 L 1.078125 -5.515625 L 1.078125 -0.796875 Z M 4.5 -0.796875 "/>
</g>
<g id="glyph-0-1">
<path d="M 2.375 -6.15625 C 3.175781 -6.15625 3.753906 -5.828125 4.109375 -5.171875 C 4.378906 -4.660156 4.515625 -3.960938 4.515625 -3.078125 C 4.515625 -2.242188 4.390625 -1.554688 4.140625 -1.015625 C 3.785156 -0.222656 3.195312 0.171875 2.375 0.171875 C 1.632812 0.171875 1.082031 -0.148438 0.71875 -0.796875 C 0.425781 -1.328125 0.28125 -2.046875 0.28125 -2.953125 C 0.28125 -3.648438 0.367188 -4.25 0.546875 -4.75 C 0.878906 -5.6875 1.488281 -6.15625 2.375 -6.15625 Z M 2.375 -0.53125 C 2.769531 -0.53125 3.085938 -0.707031 3.328125 -1.0625 C 3.566406 -1.425781 3.6875 -2.085938 3.6875 -3.046875 C 3.6875 -3.753906 3.597656 -4.332031 3.421875 -4.78125 C 3.253906 -5.226562 2.921875 -5.453125 2.421875 -5.453125 C 1.972656 -5.453125 1.640625 -5.238281 1.421875 -4.8125 C 1.210938 -4.382812 1.109375 -3.753906 1.109375 -2.921875 C 1.109375 -2.296875 1.175781 -1.789062 1.3125 -1.40625 C 1.519531 -0.820312 1.875 -0.53125 2.375 -0.53125 Z M 2.375 -0.53125 "/>
</g>
<g id="glyph-0-2">
<path d="M 0.75 -0.9375 L 1.65625 -0.9375 L 1.65625 0 L 0.75 0 Z M 0.75 -0.9375 "/>
</g>
<g id="glyph-0-3">
<path d="M 0.84375 -4.359375 L 0.84375 -4.953125 C 1.394531 -5.003906 1.78125 -5.09375 2 -5.21875 C 2.226562 -5.34375 2.394531 -5.644531 2.5 -6.125 L 3.109375 -6.125 L 3.109375 0 L 2.296875 0 L 2.296875 -4.359375 Z M 0.84375 -4.359375 "/>
</g>
<g id="glyph-0-4">
<path d="M 0.28125 0 C 0.300781 -0.53125 0.40625 -0.988281 0.59375 -1.375 C 0.789062 -1.769531 1.164062 -2.128906 1.71875 -2.453125 L 2.546875 -2.921875 C 2.910156 -3.140625 3.164062 -3.328125 3.3125 -3.484375 C 3.550781 -3.710938 3.671875 -3.984375 3.671875 -4.296875 C 3.671875 -4.648438 3.5625 -4.929688 3.34375 -5.140625 C 3.132812 -5.359375 2.847656 -5.46875 2.484375 -5.46875 C 1.960938 -5.46875 1.597656 -5.265625 1.390625 -4.859375 C 1.285156 -4.648438 1.226562 -4.351562 1.21875 -3.96875 L 0.421875 -3.96875 C 0.429688 -4.5 0.53125 -4.9375 0.71875 -5.28125 C 1.050781 -5.875 1.644531 -6.171875 2.5 -6.171875 C 3.195312 -6.171875 3.707031 -5.976562 4.03125 -5.59375 C 4.363281 -5.21875 4.53125 -4.796875 4.53125 -4.328125 C 4.53125 -3.835938 4.351562 -3.414062 4 -3.0625 C 3.800781 -2.863281 3.441406 -2.617188 2.921875 -2.328125 L 2.34375 -2 C 2.0625 -1.84375 1.835938 -1.695312 1.671875 -1.5625 C 1.390625 -1.3125 1.210938 -1.035156 1.140625 -0.734375 L 4.5 -0.734375 L 4.5 0 Z M 0.28125 0 "/>
</g>
<g id="glyph-0-5">
<path d="M 2.28125 0.171875 C 1.550781 0.171875 1.019531 -0.0234375 0.6875 -0.421875 C 0.363281 -0.828125 0.203125 -1.316406 0.203125 -1.890625 L 1.015625 -1.890625 C 1.046875 -1.492188 1.117188 -1.203125 1.234375 -1.015625 C 1.441406 -0.691406 1.804688 -0.53125 2.328125 -0.53125 C 2.734375 -0.53125 3.054688 -0.640625 3.296875 -0.859375 C 3.546875 -1.078125 3.671875 -1.359375 3.671875 -1.703125 C 3.671875 -2.128906 3.539062 -2.425781 3.28125 -2.59375 C 3.03125 -2.757812 2.671875 -2.84375 2.203125 -2.84375 C 2.148438 -2.84375 2.097656 -2.84375 2.046875 -2.84375 C 1.992188 -2.84375 1.941406 -2.84375 1.890625 -2.84375 L 1.890625 -3.515625 C 1.972656 -3.515625 2.039062 -3.507812 2.09375 -3.5 C 2.144531 -3.5 2.203125 -3.5 2.265625 -3.5 C 2.554688 -3.5 2.796875 -3.546875 2.984375 -3.640625 C 3.304688 -3.796875 3.46875 -4.082031 3.46875 -4.5 C 3.46875 -4.800781 3.359375 -5.035156 3.140625 -5.203125 C 2.921875 -5.367188 2.671875 -5.453125 2.390625 -5.453125 C 1.867188 -5.453125 1.507812 -5.28125 1.3125 -4.9375 C 1.207031 -4.75 1.144531 -4.476562 1.125 -4.125 L 0.359375 -4.125 C 0.359375 -4.582031 0.453125 -4.972656 0.640625 -5.296875 C 0.953125 -5.867188 1.503906 -6.15625 2.296875 -6.15625 C 2.929688 -6.15625 3.421875 -6.015625 3.765625 -5.734375 C 4.109375 -5.460938 4.28125 -5.0625 4.28125 -4.53125 C 4.28125 -4.144531 4.175781 -3.835938 3.96875 -3.609375 C 3.84375 -3.460938 3.679688 -3.347656 3.484375 -3.265625 C 3.804688 -3.171875 4.054688 -3 4.234375 -2.75 C 4.421875 -2.5 4.515625 -2.191406 4.515625 -1.828125 C 4.515625 -1.234375 4.316406 -0.75 3.921875 -0.375 C 3.535156 -0.0078125 2.988281 0.171875 2.28125 0.171875 Z M 2.28125 0.171875 "/>
</g>
<g id="glyph-0-6">
<path d="M 2.90625 -2.171875 L 2.90625 -4.96875 L 0.9375 -2.171875 Z M 2.921875 0 L 2.921875 -1.5 L 0.21875 -1.5 L 0.21875 -2.265625 L 3.046875 -6.171875 L 3.6875 -6.171875 L 3.6875 -2.171875 L 4.59375 -2.171875 L 4.59375 -1.5 L 3.6875 -1.5 L 3.6875 0 Z M 2.921875 0 "/>
</g>
<g id="glyph-0-7">
<path d="M 1.09375 -1.5625 C 1.132812 -1.125 1.335938 -0.820312 1.703125 -0.65625 C 1.878906 -0.570312 2.09375 -0.53125 2.34375 -0.53125 C 2.800781 -0.53125 3.140625 -0.675781 3.359375 -0.96875 C 3.578125 -1.257812 3.6875 -1.582031 3.6875 -1.9375 C 3.6875 -2.363281 3.554688 -2.691406 3.296875 -2.921875 C 3.035156 -3.160156 2.71875 -3.28125 2.34375 -3.28125 C 2.082031 -3.28125 1.851562 -3.226562 1.65625 -3.125 C 1.46875 -3.019531 1.304688 -2.878906 1.171875 -2.703125 L 0.5 -2.734375 L 0.96875 -6.046875 L 4.171875 -6.046875 L 4.171875 -5.296875 L 1.5625 -5.296875 L 1.296875 -3.59375 C 1.429688 -3.695312 1.566406 -3.773438 1.703125 -3.828125 C 1.929688 -3.929688 2.195312 -3.984375 2.5 -3.984375 C 3.0625 -3.984375 3.535156 -3.800781 3.921875 -3.4375 C 4.316406 -3.070312 4.515625 -2.609375 4.515625 -2.046875 C 4.515625 -1.460938 4.332031 -0.945312 3.96875 -0.5 C 3.613281 -0.0625 3.046875 0.15625 2.265625 0.15625 C 1.753906 0.15625 1.304688 0.0117188 0.921875 -0.265625 C 0.546875 -0.546875 0.332031 -0.976562 0.28125 -1.5625 Z M 1.09375 -1.5625 "/>
</g>
<g id="glyph-0-8">
<path d="M 4.59375 -6.046875 L 4.59375 -5.375 C 4.394531 -5.175781 4.128906 -4.835938 3.796875 -4.359375 C 3.472656 -3.890625 3.1875 -3.378906 2.9375 -2.828125 C 2.6875 -2.296875 2.5 -1.8125 2.375 -1.375 C 2.289062 -1.082031 2.179688 -0.625 2.046875 0 L 1.203125 0 C 1.390625 -1.175781 1.816406 -2.34375 2.484375 -3.5 C 2.878906 -4.1875 3.289062 -4.773438 3.71875 -5.265625 L 0.328125 -5.265625 L 0.328125 -6.046875 Z M 4.59375 -6.046875 "/>
</g>
<g id="glyph-1-0">
<path d="M 0.359375 0 L 0.359375 -7.890625 L 6.625 -7.890625 L 6.625 0 Z M 5.625 -0.984375 L 5.625 -6.90625 L 1.34375 -6.90625 L 1.34375 -0.984375 Z M 5.625 -0.984375 "/>
</g>
<g id="glyph-1-1">
<path d="M 4.890625 -3.234375 L 3.6875 -6.71875 L 2.421875 -3.234375 Z M 3.125 -7.890625 L 4.34375 -7.890625 L 7.203125 0 L 6.03125 0 L 5.234375 -2.359375 L 2.109375 -2.359375 L 1.25 0 L 0.15625 0 Z M 3.125 -7.890625 "/>
</g>
<g id="glyph-1-2">
<path d="M 0.734375 -7.890625 L 1.703125 -7.890625 L 1.703125 0 L 0.734375 0 Z M 0.734375 -7.890625 "/>
</g>
<g id="glyph-1-3">
<path d="M 0.90625 -7.359375 L 1.875 -7.359375 L 1.875 -5.75 L 2.796875 -5.75 L 2.796875 -4.96875 L 1.875 -4.96875 L 1.875 -1.203125 C 1.875 -1.003906 1.941406 -0.875 2.078125 -0.8125 C 2.160156 -0.769531 2.285156 -0.75 2.453125 -0.75 C 2.503906 -0.75 2.554688 -0.75 2.609375 -0.75 C 2.660156 -0.75 2.722656 -0.753906 2.796875 -0.765625 L 2.796875 0 C 2.679688 0.03125 2.5625 0.0507812 2.4375 0.0625 C 2.320312 0.0820312 2.195312 0.09375 2.0625 0.09375 C 1.613281 0.09375 1.304688 -0.0195312 1.140625 -0.25 C 0.984375 -0.488281 0.90625 -0.789062 0.90625 -1.15625 L 0.90625 -4.96875 L 0.125 -4.96875 L 0.125 -5.75 L 0.90625 -5.75 Z M 0.90625 -7.359375 "/>
</g>
<g id="glyph-1-4">
<path d="M 1.671875 -5.75 L 1.671875 -1.9375 C 1.671875 -1.644531 1.71875 -1.40625 1.8125 -1.21875 C 1.988281 -0.875 2.3125 -0.703125 2.78125 -0.703125 C 3.445312 -0.703125 3.90625 -1 4.15625 -1.59375 C 4.28125 -1.914062 4.34375 -2.359375 4.34375 -2.921875 L 4.34375 -5.75 L 5.3125 -5.75 L 5.3125 0 L 4.40625 0 L 4.421875 -0.84375 C 4.296875 -0.625 4.140625 -0.441406 3.953125 -0.296875 C 3.578125 0.00390625 3.128906 0.15625 2.609375 0.15625 C 1.785156 0.15625 1.222656 -0.117188 0.921875 -0.671875 C 0.765625 -0.960938 0.6875 -1.351562 0.6875 -1.84375 L 0.6875 -5.75 Z M 3 -5.890625 Z M 3 -5.890625 "/>
</g>
<g id="glyph-1-5">
<path d="M 0.734375 -5.75 L 1.65625 -5.75 L 1.65625 -4.765625 C 1.726562 -4.953125 1.910156 -5.179688 2.203125 -5.453125 C 2.492188 -5.734375 2.832031 -5.875 3.21875 -5.875 C 3.238281 -5.875 3.269531 -5.875 3.3125 -5.875 C 3.351562 -5.875 3.425781 -5.867188 3.53125 -5.859375 L 3.53125 -4.828125 C 3.476562 -4.835938 3.425781 -4.84375 3.375 -4.84375 C 3.320312 -4.851562 3.269531 -4.859375 3.21875 -4.859375 C 2.726562 -4.859375 2.351562 -4.703125 2.09375 -4.390625 C 1.832031 -4.078125 1.703125 -3.71875 1.703125 -3.3125 L 1.703125 0 L 0.734375 0 Z M 0.734375 -5.75 "/>
</g>
<g id="glyph-1-6">
<path d="M 1.453125 -1.53125 C 1.453125 -1.25 1.550781 -1.023438 1.75 -0.859375 C 1.957031 -0.703125 2.203125 -0.625 2.484375 -0.625 C 2.816406 -0.625 3.144531 -0.703125 3.46875 -0.859375 C 4.007812 -1.117188 4.28125 -1.550781 4.28125 -2.15625 L 4.28125 -2.921875 C 4.15625 -2.847656 4 -2.785156 3.8125 -2.734375 C 3.632812 -2.691406 3.453125 -2.65625 3.265625 -2.625 L 2.6875 -2.5625 C 2.332031 -2.507812 2.066406 -2.4375 1.890625 -2.34375 C 1.597656 -2.164062 1.453125 -1.894531 1.453125 -1.53125 Z M 3.796875 -3.484375 C 4.015625 -3.515625 4.160156 -3.609375 4.234375 -3.765625 C 4.273438 -3.847656 4.296875 -3.972656 4.296875 -4.140625 C 4.296875 -4.460938 4.175781 -4.695312 3.9375 -4.84375 C 3.707031 -5 3.375 -5.078125 2.9375 -5.078125 C 2.4375 -5.078125 2.082031 -4.941406 1.875 -4.671875 C 1.75 -4.515625 1.671875 -4.289062 1.640625 -4 L 0.734375 -4 C 0.753906 -4.707031 0.984375 -5.195312 1.421875 -5.46875 C 1.867188 -5.75 2.382812 -5.890625 2.96875 -5.890625 C 3.644531 -5.890625 4.191406 -5.757812 4.609375 -5.5 C 5.035156 -5.25 5.25 -4.847656 5.25 -4.296875 L 5.25 -0.984375 C 5.25 -0.890625 5.265625 -0.8125 5.296875 -0.75 C 5.335938 -0.6875 5.425781 -0.65625 5.5625 -0.65625 C 5.601562 -0.65625 5.648438 -0.65625 5.703125 -0.65625 C 5.765625 -0.664062 5.820312 -0.675781 5.875 -0.6875 L 5.875 0.03125 C 5.726562 0.0703125 5.613281 0.0976562 5.53125 0.109375 C 5.457031 0.117188 5.351562 0.125 5.21875 0.125 C 4.882812 0.125 4.640625 0.00390625 4.484375 -0.234375 C 4.410156 -0.359375 4.359375 -0.535156 4.328125 -0.765625 C 4.128906 -0.503906 3.84375 -0.28125 3.46875 -0.09375 C 3.101562 0.0898438 2.695312 0.1875 2.25 0.1875 C 1.71875 0.1875 1.28125 0.0234375 0.9375 -0.296875 C 0.601562 -0.617188 0.4375 -1.023438 0.4375 -1.515625 C 0.4375 -2.046875 0.601562 -2.457031 0.9375 -2.75 C 1.269531 -3.039062 1.707031 -3.222656 2.25 -3.296875 Z M 2.984375 -5.890625 Z M 2.984375 -5.890625 "/>
</g>
<g id="glyph-1-7">
</g>
<g id="glyph-1-8">
<path d="M 3.25 -8.015625 C 2.6875 -6.921875 2.320312 -6.117188 2.15625 -5.609375 C 1.90625 -4.828125 1.78125 -3.921875 1.78125 -2.890625 C 1.78125 -1.847656 1.925781 -0.898438 2.21875 -0.046875 C 2.394531 0.480469 2.742188 1.25 3.265625 2.25 L 2.625 2.25 C 2.101562 1.425781 1.78125 0.898438 1.65625 0.671875 C 1.53125 0.453125 1.390625 0.148438 1.234375 -0.234375 C 1.035156 -0.765625 0.898438 -1.332031 0.828125 -1.9375 C 0.785156 -2.25 0.765625 -2.546875 0.765625 -2.828125 C 0.765625 -3.890625 0.929688 -4.832031 1.265625 -5.65625 C 1.472656 -6.1875 1.910156 -6.972656 2.578125 -8.015625 Z M 3.25 -8.015625 "/>
</g>
<g id="glyph-1-9">
<path d="M 2.921875 -5.921875 C 3.578125 -5.921875 4.109375 -5.757812 4.515625 -5.4375 C 4.921875 -5.125 5.164062 -4.582031 5.25 -3.8125 L 4.296875 -3.8125 C 4.242188 -4.164062 4.113281 -4.457031 3.90625 -4.6875 C 3.707031 -4.925781 3.378906 -5.046875 2.921875 -5.046875 C 2.304688 -5.046875 1.867188 -4.75 1.609375 -4.15625 C 1.429688 -3.757812 1.34375 -3.273438 1.34375 -2.703125 C 1.34375 -2.128906 1.460938 -1.644531 1.703125 -1.25 C 1.953125 -0.851562 2.335938 -0.65625 2.859375 -0.65625 C 3.265625 -0.65625 3.582031 -0.773438 3.8125 -1.015625 C 4.050781 -1.265625 4.210938 -1.601562 4.296875 -2.03125 L 5.25 -2.03125 C 5.132812 -1.269531 4.863281 -0.710938 4.4375 -0.359375 C 4.007812 -0.00390625 3.457031 0.171875 2.78125 0.171875 C 2.03125 0.171875 1.429688 -0.101562 0.984375 -0.65625 C 0.535156 -1.207031 0.3125 -1.894531 0.3125 -2.71875 C 0.3125 -3.726562 0.554688 -4.515625 1.046875 -5.078125 C 1.535156 -5.640625 2.160156 -5.921875 2.921875 -5.921875 Z M 2.78125 -5.890625 Z M 2.78125 -5.890625 "/>
</g>
<g id="glyph-1-10">
<path d="M 0.703125 -5.75 L 1.671875 -5.75 L 1.671875 -4.9375 C 1.898438 -5.21875 2.101562 -5.421875 2.28125 -5.546875 C 2.601562 -5.765625 2.96875 -5.875 3.375 -5.875 C 3.832031 -5.875 4.203125 -5.765625 4.484375 -5.546875 C 4.640625 -5.410156 4.78125 -5.21875 4.90625 -4.96875 C 5.125 -5.28125 5.378906 -5.507812 5.671875 -5.65625 C 5.960938 -5.800781 6.285156 -5.875 6.640625 -5.875 C 7.410156 -5.875 7.9375 -5.597656 8.21875 -5.046875 C 8.375 -4.742188 8.453125 -4.335938 8.453125 -3.828125 L 8.453125 0 L 7.4375 0 L 7.4375 -4 C 7.4375 -4.382812 7.34375 -4.644531 7.15625 -4.78125 C 6.96875 -4.925781 6.734375 -5 6.453125 -5 C 6.078125 -5 5.75 -4.867188 5.46875 -4.609375 C 5.195312 -4.359375 5.0625 -3.9375 5.0625 -3.34375 L 5.0625 0 L 4.078125 0 L 4.078125 -3.75 C 4.078125 -4.144531 4.03125 -4.429688 3.9375 -4.609375 C 3.789062 -4.878906 3.519531 -5.015625 3.125 -5.015625 C 2.757812 -5.015625 2.425781 -4.867188 2.125 -4.578125 C 1.820312 -4.296875 1.671875 -3.785156 1.671875 -3.046875 L 1.671875 0 L 0.703125 0 Z M 0.703125 -5.75 "/>
</g>
<g id="glyph-1-11">
<path d="M 0.375 2.25 C 0.945312 1.132812 1.316406 0.320312 1.484375 -0.1875 C 1.734375 -0.957031 1.859375 -1.859375 1.859375 -2.890625 C 1.859375 -3.921875 1.710938 -4.867188 1.421875 -5.734375 C 1.242188 -6.265625 0.890625 -7.023438 0.359375 -8.015625 L 1.015625 -8.015625 C 1.566406 -7.140625 1.898438 -6.597656 2.015625 -6.390625 C 2.128906 -6.179688 2.253906 -5.894531 2.390625 -5.53125 C 2.566406 -5.082031 2.691406 -4.640625 2.765625 -4.203125 C 2.835938 -3.773438 2.875 -3.359375 2.875 -2.953125 C 2.875 -1.890625 2.707031 -0.941406 2.375 -0.109375 C 2.15625 0.417969 1.710938 1.207031 1.046875 2.25 Z M 0.375 2.25 "/>
</g>
<g id="glyph-2-0">
<path d="M 0 -0.359375 L -7.890625 -0.359375 L -7.890625 -6.625 L 0 -6.625 Z M -0.984375 -5.625 L -6.90625 -5.625 L -6.90625 -1.34375 L -0.984375 -1.34375 Z M -0.984375 -5.625 "/>
</g>
<g id="glyph-2-1">
<path d="M -0.90625 -3.875 C -0.90625 -4.226562 -0.945312 -4.523438 -1.03125 -4.765625 C -1.164062 -5.171875 -1.429688 -5.507812 -1.828125 -5.78125 C -2.148438 -5.988281 -2.5625 -6.140625 -3.0625 -6.234375 C -3.351562 -6.285156 -3.628906 -6.3125 -3.890625 -6.3125 C -4.859375 -6.3125 -5.613281 -6.117188 -6.15625 -5.734375 C -6.695312 -5.347656 -6.96875 -4.722656 -6.96875 -3.859375 L -6.96875 -1.953125 L -0.90625 -1.953125 Z M -7.890625 -0.890625 L -7.890625 -4.078125 C -7.890625 -5.160156 -7.503906 -6.003906 -6.734375 -6.609375 C -6.035156 -7.140625 -5.144531 -7.40625 -4.0625 -7.40625 C -3.226562 -7.40625 -2.472656 -7.25 -1.796875 -6.9375 C -0.597656 -6.382812 0 -5.429688 0 -4.078125 L 0 -0.890625 Z M -7.890625 -0.890625 "/>
</g>
<g id="glyph-2-2">
<path d="M -5.875 -3.109375 C -5.875 -3.515625 -5.78125 -3.90625 -5.59375 -4.28125 C -5.40625 -4.664062 -5.15625 -4.960938 -4.84375 -5.171875 C -4.5625 -5.359375 -4.222656 -5.484375 -3.828125 -5.546875 C -3.566406 -5.609375 -3.144531 -5.640625 -2.5625 -5.640625 L -2.5625 -1.421875 C -1.976562 -1.441406 -1.507812 -1.578125 -1.15625 -1.828125 C -0.8125 -2.085938 -0.640625 -2.488281 -0.640625 -3.03125 C -0.640625 -3.539062 -0.804688 -3.945312 -1.140625 -4.25 C -1.328125 -4.414062 -1.550781 -4.535156 -1.8125 -4.609375 L -1.8125 -5.5625 C -1.59375 -5.53125 -1.351562 -5.441406 -1.09375 -5.296875 C -0.832031 -5.160156 -0.625 -5.003906 -0.46875 -4.828125 C -0.175781 -4.535156 0.0195312 -4.175781 0.125 -3.75 C 0.175781 -3.507812 0.203125 -3.242188 0.203125 -2.953125 C 0.203125 -2.234375 -0.0546875 -1.625 -0.578125 -1.125 C -1.097656 -0.632812 -1.828125 -0.390625 -2.765625 -0.390625 C -3.691406 -0.390625 -4.441406 -0.640625 -5.015625 -1.140625 C -5.585938 -1.640625 -5.875 -2.296875 -5.875 -3.109375 Z M -3.328125 -4.640625 C -3.753906 -4.609375 -4.09375 -4.519531 -4.34375 -4.375 C -4.800781 -4.101562 -5.03125 -3.660156 -5.03125 -3.046875 C -5.03125 -2.597656 -4.867188 -2.222656 -4.546875 -1.921875 C -4.234375 -1.628906 -3.828125 -1.472656 -3.328125 -1.453125 Z M -5.890625 -3.015625 Z M -5.890625 -3.015625 "/>
</g>
<g id="glyph-2-3">
<path d="M -5.75 -0.703125 L -5.75 -1.625 L -4.9375 -1.625 C -5.269531 -1.894531 -5.507812 -2.179688 -5.65625 -2.484375 C -5.800781 -2.796875 -5.875 -3.132812 -5.875 -3.5 C -5.875 -4.320312 -5.59375 -4.875 -5.03125 -5.15625 C -4.71875 -5.3125 -4.269531 -5.390625 -3.6875 -5.390625 L 0 -5.390625 L 0 -4.421875 L -3.625 -4.421875 C -3.976562 -4.421875 -4.257812 -4.367188 -4.46875 -4.265625 C -4.832031 -4.085938 -5.015625 -3.773438 -5.015625 -3.328125 C -5.015625 -3.097656 -4.988281 -2.910156 -4.9375 -2.765625 C -4.863281 -2.492188 -4.707031 -2.257812 -4.46875 -2.0625 C -4.28125 -1.90625 -4.082031 -1.800781 -3.875 -1.75 C -3.675781 -1.695312 -3.390625 -1.671875 -3.015625 -1.671875 L 0 -1.671875 L 0 -0.703125 Z M -5.890625 -2.984375 Z M -5.890625 -2.984375 "/>
</g>
<g id="glyph-2-4">
<path d="M -1.8125 -1.28125 C -1.488281 -1.3125 -1.238281 -1.394531 -1.0625 -1.53125 C -0.75 -1.769531 -0.59375 -2.191406 -0.59375 -2.796875 C -0.59375 -3.148438 -0.671875 -3.460938 -0.828125 -3.734375 C -0.984375 -4.003906 -1.222656 -4.140625 -1.546875 -4.140625 C -1.796875 -4.140625 -1.984375 -4.03125 -2.109375 -3.8125 C -2.191406 -3.675781 -2.285156 -3.398438 -2.390625 -2.984375 L -2.578125 -2.21875 C -2.703125 -1.726562 -2.835938 -1.367188 -2.984375 -1.140625 C -3.253906 -0.722656 -3.617188 -0.515625 -4.078125 -0.515625 C -4.617188 -0.515625 -5.054688 -0.707031 -5.390625 -1.09375 C -5.734375 -1.488281 -5.90625 -2.019531 -5.90625 -2.6875 C -5.90625 -3.550781 -5.648438 -4.175781 -5.140625 -4.5625 C -4.816406 -4.800781 -4.46875 -4.914062 -4.09375 -4.90625 L -4.09375 -4 C -4.3125 -3.976562 -4.507812 -3.898438 -4.6875 -3.765625 C -4.945312 -3.546875 -5.078125 -3.160156 -5.078125 -2.609375 C -5.078125 -2.242188 -5.003906 -1.96875 -4.859375 -1.78125 C -4.722656 -1.59375 -4.539062 -1.5 -4.3125 -1.5 C -4.0625 -1.5 -3.863281 -1.625 -3.71875 -1.875 C -3.625 -2.007812 -3.539062 -2.21875 -3.46875 -2.5 L -3.3125 -3.140625 C -3.144531 -3.835938 -2.984375 -4.300781 -2.828125 -4.53125 C -2.578125 -4.914062 -2.191406 -5.109375 -1.671875 -5.109375 C -1.148438 -5.109375 -0.703125 -4.910156 -0.328125 -4.515625 C 0.0351562 -4.128906 0.21875 -3.539062 0.21875 -2.75 C 0.21875 -1.894531 0.0234375 -1.285156 -0.359375 -0.921875 C -0.753906 -0.566406 -1.238281 -0.378906 -1.8125 -0.359375 Z M -5.890625 -2.71875 Z M -5.890625 -2.71875 "/>
</g>
<g id="glyph-2-5">
<path d="M -5.71875 -0.703125 L -5.71875 -1.6875 L 0 -1.6875 L 0 -0.703125 Z M -7.890625 -0.703125 L -7.890625 -1.6875 L -6.796875 -1.6875 L -6.796875 -0.703125 Z M -7.890625 -0.703125 "/>
</g>
<g id="glyph-2-6">
<path d="M -2.8125 -1.328125 C -2.195312 -1.328125 -1.679688 -1.457031 -1.265625 -1.71875 C -0.847656 -1.976562 -0.640625 -2.394531 -0.640625 -2.96875 C -0.640625 -3.414062 -0.832031 -3.78125 -1.21875 -4.0625 C -1.601562 -4.351562 -2.15625 -4.5 -2.875 -4.5 C -3.601562 -4.5 -4.140625 -4.347656 -4.484375 -4.046875 C -4.835938 -3.753906 -5.015625 -3.390625 -5.015625 -2.953125 C -5.015625 -2.472656 -4.828125 -2.082031 -4.453125 -1.78125 C -4.078125 -1.476562 -3.53125 -1.328125 -2.8125 -1.328125 Z M -5.859375 -2.78125 C -5.859375 -3.21875 -5.765625 -3.585938 -5.578125 -3.890625 C -5.472656 -4.054688 -5.285156 -4.25 -5.015625 -4.46875 L -7.921875 -4.46875 L -7.921875 -5.390625 L 0 -5.390625 L 0 -4.53125 L -0.796875 -4.53125 C -0.441406 -4.300781 -0.1875 -4.03125 -0.03125 -3.71875 C 0.121094 -3.414062 0.203125 -3.066406 0.203125 -2.671875 C 0.203125 -2.023438 -0.0625 -1.46875 -0.59375 -1 C -1.132812 -0.53125 -1.851562 -0.296875 -2.75 -0.296875 C -3.59375 -0.296875 -4.320312 -0.507812 -4.9375 -0.9375 C -5.550781 -1.363281 -5.859375 -1.976562 -5.859375 -2.78125 Z M -5.859375 -2.78125 "/>
</g>
<g id="glyph-2-7">
<path d="M -1.53125 -1.453125 C -1.25 -1.453125 -1.023438 -1.550781 -0.859375 -1.75 C -0.703125 -1.957031 -0.625 -2.203125 -0.625 -2.484375 C -0.625 -2.816406 -0.703125 -3.144531 -0.859375 -3.46875 C -1.117188 -4.007812 -1.550781 -4.28125 -2.15625 -4.28125 L -2.921875 -4.28125 C -2.847656 -4.15625 -2.785156 -4 -2.734375 -3.8125 C -2.691406 -3.632812 -2.65625 -3.453125 -2.625 -3.265625 L -2.5625 -2.6875 C -2.507812 -2.332031 -2.4375 -2.066406 -2.34375 -1.890625 C -2.164062 -1.597656 -1.894531 -1.453125 -1.53125 -1.453125 Z M -3.484375 -3.796875 C -3.515625 -4.015625 -3.609375 -4.160156 -3.765625 -4.234375 C -3.847656 -4.273438 -3.972656 -4.296875 -4.140625 -4.296875 C -4.460938 -4.296875 -4.695312 -4.175781 -4.84375 -3.9375 C -5 -3.707031 -5.078125 -3.375 -5.078125 -2.9375 C -5.078125 -2.4375 -4.941406 -2.082031 -4.671875 -1.875 C -4.515625 -1.75 -4.289062 -1.671875 -4 -1.640625 L -4 -0.734375 C -4.707031 -0.753906 -5.195312 -0.984375 -5.46875 -1.421875 C -5.75 -1.867188 -5.890625 -2.382812 -5.890625 -2.96875 C -5.890625 -3.644531 -5.757812 -4.191406 -5.5 -4.609375 C -5.25 -5.035156 -4.847656 -5.25 -4.296875 -5.25 L -0.984375 -5.25 C -0.890625 -5.25 -0.8125 -5.265625 -0.75 -5.296875 C -0.6875 -5.335938 -0.65625 -5.425781 -0.65625 -5.5625 C -0.65625 -5.601562 -0.65625 -5.648438 -0.65625 -5.703125 C -0.664062 -5.765625 -0.675781 -5.820312 -0.6875 -5.875 L 0.03125 -5.875 C 0.0703125 -5.726562 0.0976562 -5.613281 0.109375 -5.53125 C 0.117188 -5.457031 0.125 -5.351562 0.125 -5.21875 C 0.125 -4.882812 0.00390625 -4.640625 -0.234375 -4.484375 C -0.359375 -4.410156 -0.535156 -4.359375 -0.765625 -4.328125 C -0.503906 -4.128906 -0.28125 -3.84375 -0.09375 -3.46875 C 0.0898438 -3.101562 0.1875 -2.695312 0.1875 -2.25 C 0.1875 -1.71875 0.0234375 -1.28125 -0.296875 -0.9375 C -0.617188 -0.601562 -1.023438 -0.4375 -1.515625 -0.4375 C -2.046875 -0.4375 -2.457031 -0.601562 -2.75 -0.9375 C -3.039062 -1.269531 -3.222656 -1.707031 -3.296875 -2.25 Z M -5.890625 -2.984375 Z M -5.890625 -2.984375 "/>
</g>
<g id="glyph-2-8">
</g>
<g id="glyph-2-9">
<path d="M -7.890625 -0.9375 L -7.890625 -4.484375 C -7.890625 -5.191406 -7.691406 -5.757812 -7.296875 -6.1875 C -6.898438 -6.613281 -6.34375 -6.828125 -5.625 -6.828125 C -5.007812 -6.828125 -4.472656 -6.632812 -4.015625 -6.25 C -3.554688 -5.875 -3.328125 -5.285156 -3.328125 -4.484375 L -3.328125 -2.015625 L 0 -2.015625 L 0 -0.9375 Z M -5.625 -5.75 C -6.207031 -5.75 -6.601562 -5.535156 -6.8125 -5.109375 C -6.914062 -4.867188 -6.96875 -4.546875 -6.96875 -4.140625 L -6.96875 -2.015625 L -4.234375 -2.015625 L -4.234375 -4.140625 C -4.234375 -4.617188 -4.332031 -5.003906 -4.53125 -5.296875 C -4.738281 -5.597656 -5.101562 -5.75 -5.625 -5.75 Z M -5.625 -5.75 "/>
</g>
<g id="glyph-2-10">
<path d="M -5.75 -0.734375 L -5.75 -1.65625 L -4.765625 -1.65625 C -4.953125 -1.726562 -5.179688 -1.910156 -5.453125 -2.203125 C -5.734375 -2.492188 -5.875 -2.832031 -5.875 -3.21875 C -5.875 -3.238281 -5.875 -3.269531 -5.875 -3.3125 C -5.875 -3.351562 -5.867188 -3.425781 -5.859375 -3.53125 L -4.828125 -3.53125 C -4.835938 -3.476562 -4.84375 -3.425781 -4.84375 -3.375 C -4.851562 -3.320312 -4.859375 -3.269531 -4.859375 -3.21875 C -4.859375 -2.726562 -4.703125 -2.351562 -4.390625 -2.09375 C -4.078125 -1.832031 -3.71875 -1.703125 -3.3125 -1.703125 L 0 -1.703125 L 0 -0.734375 Z M -5.75 -0.734375 "/>
</g>
<g id="glyph-2-11">
<path d="M -0.625 -2.984375 C -0.625 -3.628906 -0.863281 -4.070312 -1.34375 -4.3125 C -1.832031 -4.550781 -2.375 -4.671875 -2.96875 -4.671875 C -3.507812 -4.671875 -3.945312 -4.582031 -4.28125 -4.40625 C -4.8125 -4.132812 -5.078125 -3.664062 -5.078125 -3 C -5.078125 -2.40625 -4.847656 -1.972656 -4.390625 -1.703125 C -3.941406 -1.441406 -3.398438 -1.3125 -2.765625 -1.3125 C -2.148438 -1.3125 -1.640625 -1.441406 -1.234375 -1.703125 C -0.828125 -1.972656 -0.625 -2.398438 -0.625 -2.984375 Z M -5.921875 -3.03125 C -5.921875 -3.769531 -5.671875 -4.394531 -5.171875 -4.90625 C -4.679688 -5.414062 -3.957031 -5.671875 -3 -5.671875 C -2.070312 -5.671875 -1.304688 -5.445312 -0.703125 -5 C -0.0976562 -4.550781 0.203125 -3.851562 0.203125 -2.90625 C 0.203125 -2.113281 -0.0625 -1.484375 -0.59375 -1.015625 C -1.125 -0.546875 -1.84375 -0.3125 -2.75 -0.3125 C -3.71875 -0.3125 -4.488281 -0.554688 -5.0625 -1.046875 C -5.632812 -1.535156 -5.921875 -2.195312 -5.921875 -3.03125 Z M -5.890625 -3 Z M -5.890625 -3 "/>
</g>
<g id="glyph-2-12">
<path d="M -7.921875 -0.640625 L -7.921875 -1.578125 L -5.046875 -1.578125 C -5.328125 -1.785156 -5.539062 -2.035156 -5.6875 -2.328125 C -5.832031 -2.617188 -5.90625 -2.9375 -5.90625 -3.28125 C -5.90625 -4 -5.65625 -4.582031 -5.15625 -5.03125 C -4.664062 -5.476562 -3.941406 -5.703125 -2.984375 -5.703125 C -2.078125 -5.703125 -1.320312 -5.476562 -0.71875 -5.03125 C -0.113281 -4.59375 0.1875 -3.984375 0.1875 -3.203125 C 0.1875 -2.765625 0.0742188 -2.394531 -0.140625 -2.09375 C -0.265625 -1.914062 -0.460938 -1.726562 -0.734375 -1.53125 L 0 -1.53125 L 0 -0.640625 Z M -0.671875 -3.140625 C -0.671875 -3.671875 -0.878906 -4.0625 -1.296875 -4.3125 C -1.710938 -4.570312 -2.257812 -4.703125 -2.9375 -4.703125 C -3.539062 -4.703125 -4.039062 -4.570312 -4.4375 -4.3125 C -4.832031 -4.0625 -5.03125 -3.679688 -5.03125 -3.171875 C -5.03125 -2.734375 -4.867188 -2.347656 -4.546875 -2.015625 C -4.222656 -1.679688 -3.6875 -1.515625 -2.9375 -1.515625 C -2.394531 -1.515625 -1.957031 -1.582031 -1.625 -1.71875 C -0.988281 -1.976562 -0.671875 -2.453125 -0.671875 -3.140625 Z M -0.671875 -3.140625 "/>
</g>
<g id="glyph-2-13">
<path d="M -7.890625 -0.734375 L -7.890625 -1.703125 L 0 -1.703125 L 0 -0.734375 Z M -7.890625 -0.734375 "/>
</g>
<g id="glyph-3-0">
<path d="M 0.421875 0 L 0.421875 -9.46875 L 7.9375 -9.46875 L 7.9375 0 Z M 6.75 -1.1875 L 6.75 -8.28125 L 1.609375 -8.28125 L 1.609375 -1.1875 Z M 6.75 -1.1875 "/>
</g>
<g id="glyph-3-1">
<path d="M 5.859375 -3.875 L 4.421875 -8.0625 L 2.90625 -3.875 Z M 3.765625 -9.46875 L 5.203125 -9.46875 L 8.640625 0 L 7.234375 0 L 6.28125 -2.84375 L 2.53125 -2.84375 L 1.515625 0 L 0.1875 0 Z M 3.765625 -9.46875 "/>
</g>
<g id="glyph-3-2">
<path d="M 0.890625 -9.46875 L 2.046875 -9.46875 L 2.046875 0 L 0.890625 0 Z M 0.890625 -9.46875 "/>
</g>
<g id="glyph-3-3">
<path d="M 1.078125 -8.828125 L 2.25 -8.828125 L 2.25 -6.90625 L 3.359375 -6.90625 L 3.359375 -5.953125 L 2.25 -5.953125 L 2.25 -1.453125 C 2.25 -1.210938 2.332031 -1.050781 2.5 -0.96875 C 2.59375 -0.914062 2.742188 -0.890625 2.953125 -0.890625 C 3.003906 -0.890625 3.0625 -0.890625 3.125 -0.890625 C 3.195312 -0.898438 3.273438 -0.910156 3.359375 -0.921875 L 3.359375 0 C 3.222656 0.0390625 3.082031 0.0664062 2.9375 0.078125 C 2.800781 0.0976562 2.644531 0.109375 2.46875 0.109375 C 1.925781 0.109375 1.554688 -0.0234375 1.359375 -0.296875 C 1.171875 -0.578125 1.078125 -0.941406 1.078125 -1.390625 L 1.078125 -5.953125 L 0.140625 -5.953125 L 0.140625 -6.90625 L 1.078125 -6.90625 Z M 1.078125 -8.828125 "/>
</g>
<g id="glyph-3-4">
<path d="M 2.015625 -6.90625 L 2.015625 -2.328125 C 2.015625 -1.972656 2.066406 -1.679688 2.171875 -1.453125 C 2.378906 -1.046875 2.765625 -0.84375 3.328125 -0.84375 C 4.140625 -0.84375 4.691406 -1.203125 4.984375 -1.921875 C 5.140625 -2.304688 5.21875 -2.835938 5.21875 -3.515625 L 5.21875 -6.90625 L 6.375 -6.90625 L 6.375 0 L 5.28125 0 L 5.296875 -1.015625 C 5.148438 -0.753906 4.960938 -0.535156 4.734375 -0.359375 C 4.296875 0.00390625 3.757812 0.1875 3.125 0.1875 C 2.144531 0.1875 1.472656 -0.140625 1.109375 -0.796875 C 0.921875 -1.148438 0.828125 -1.625 0.828125 -2.21875 L 0.828125 -6.90625 Z M 3.609375 -7.078125 Z M 3.609375 -7.078125 "/>
</g>
<g id="glyph-3-5">
<path d="M 0.890625 -6.90625 L 1.984375 -6.90625 L 1.984375 -5.71875 C 2.078125 -5.945312 2.296875 -6.226562 2.640625 -6.5625 C 2.992188 -6.894531 3.40625 -7.0625 3.875 -7.0625 C 3.894531 -7.0625 3.929688 -7.054688 3.984375 -7.046875 C 4.035156 -7.046875 4.117188 -7.039062 4.234375 -7.03125 L 4.234375 -5.796875 C 4.171875 -5.816406 4.109375 -5.828125 4.046875 -5.828125 C 3.992188 -5.828125 3.929688 -5.828125 3.859375 -5.828125 C 3.273438 -5.828125 2.828125 -5.640625 2.515625 -5.265625 C 2.203125 -4.890625 2.046875 -4.457031 2.046875 -3.96875 L 2.046875 0 L 0.890625 0 Z M 0.890625 -6.90625 "/>
</g>
<g id="glyph-3-6">
<path d="M 1.734375 -1.84375 C 1.734375 -1.5 1.851562 -1.226562 2.09375 -1.03125 C 2.34375 -0.84375 2.640625 -0.75 2.984375 -0.75 C 3.390625 -0.75 3.785156 -0.84375 4.171875 -1.03125 C 4.804688 -1.351562 5.125 -1.867188 5.125 -2.578125 L 5.125 -3.515625 C 4.988281 -3.421875 4.804688 -3.34375 4.578125 -3.28125 C 4.359375 -3.226562 4.140625 -3.1875 3.921875 -3.15625 L 3.21875 -3.0625 C 2.800781 -3.007812 2.488281 -2.921875 2.28125 -2.796875 C 1.914062 -2.597656 1.734375 -2.28125 1.734375 -1.84375 Z M 4.546875 -4.1875 C 4.816406 -4.21875 5 -4.328125 5.09375 -4.515625 C 5.132812 -4.617188 5.15625 -4.769531 5.15625 -4.96875 C 5.15625 -5.363281 5.015625 -5.648438 4.734375 -5.828125 C 4.453125 -6.003906 4.050781 -6.09375 3.53125 -6.09375 C 2.925781 -6.09375 2.5 -5.929688 2.25 -5.609375 C 2.101562 -5.421875 2.007812 -5.148438 1.96875 -4.796875 L 0.890625 -4.796875 C 0.910156 -5.648438 1.1875 -6.242188 1.71875 -6.578125 C 2.25 -6.910156 2.863281 -7.078125 3.5625 -7.078125 C 4.375 -7.078125 5.03125 -6.921875 5.53125 -6.609375 C 6.039062 -6.296875 6.296875 -5.8125 6.296875 -5.15625 L 6.296875 -1.1875 C 6.296875 -1.0625 6.316406 -0.960938 6.359375 -0.890625 C 6.410156 -0.816406 6.515625 -0.78125 6.671875 -0.78125 C 6.722656 -0.78125 6.78125 -0.785156 6.84375 -0.796875 C 6.914062 -0.804688 6.988281 -0.816406 7.0625 -0.828125 L 7.0625 0.03125 C 6.875 0.0820312 6.734375 0.113281 6.640625 0.125 C 6.546875 0.132812 6.421875 0.140625 6.265625 0.140625 C 5.859375 0.140625 5.566406 0 5.390625 -0.28125 C 5.296875 -0.425781 5.226562 -0.640625 5.1875 -0.921875 C 4.945312 -0.609375 4.601562 -0.335938 4.15625 -0.109375 C 3.71875 0.117188 3.234375 0.234375 2.703125 0.234375 C 2.066406 0.234375 1.546875 0.0390625 1.140625 -0.34375 C 0.734375 -0.738281 0.53125 -1.226562 0.53125 -1.8125 C 0.53125 -2.445312 0.726562 -2.941406 1.125 -3.296875 C 1.53125 -3.648438 2.054688 -3.867188 2.703125 -3.953125 Z M 3.59375 -7.078125 Z M 3.59375 -7.078125 "/>
</g>
<g id="glyph-3-7">
<path d="M 1.546875 -2.171875 C 1.578125 -1.773438 1.671875 -1.476562 1.828125 -1.28125 C 2.117188 -0.90625 2.628906 -0.71875 3.359375 -0.71875 C 3.785156 -0.71875 4.160156 -0.8125 4.484375 -1 C 4.816406 -1.1875 4.984375 -1.472656 4.984375 -1.859375 C 4.984375 -2.160156 4.847656 -2.390625 4.578125 -2.546875 C 4.410156 -2.640625 4.082031 -2.75 3.59375 -2.875 L 2.671875 -3.09375 C 2.078125 -3.238281 1.640625 -3.40625 1.359375 -3.59375 C 0.867188 -3.90625 0.625 -4.335938 0.625 -4.890625 C 0.625 -5.546875 0.859375 -6.070312 1.328125 -6.46875 C 1.796875 -6.875 2.425781 -7.078125 3.21875 -7.078125 C 4.257812 -7.078125 5.007812 -6.773438 5.46875 -6.171875 C 5.757812 -5.785156 5.898438 -5.367188 5.890625 -4.921875 L 4.796875 -4.921875 C 4.773438 -5.179688 4.679688 -5.421875 4.515625 -5.640625 C 4.253906 -5.941406 3.796875 -6.09375 3.140625 -6.09375 C 2.691406 -6.09375 2.351562 -6.007812 2.125 -5.84375 C 1.90625 -5.675781 1.796875 -5.453125 1.796875 -5.171875 C 1.796875 -4.867188 1.945312 -4.628906 2.25 -4.453125 C 2.414062 -4.347656 2.664062 -4.253906 3 -4.171875 L 3.765625 -3.984375 C 4.597656 -3.785156 5.160156 -3.585938 5.453125 -3.390625 C 5.898438 -3.097656 6.125 -2.632812 6.125 -2 C 6.125 -1.382812 5.890625 -0.851562 5.421875 -0.40625 C 4.953125 0.0390625 4.242188 0.265625 3.296875 0.265625 C 2.265625 0.265625 1.535156 0.0273438 1.109375 -0.4375 C 0.679688 -0.90625 0.453125 -1.484375 0.421875 -2.171875 Z M 3.25 -7.078125 Z M 3.25 -7.078125 "/>
</g>
</g>
<clipPath id="clip-0">
<path clip-rule="nonzero" d="M 41.152344 460 L 1074.523438 460 L 1074.523438 461 L 41.152344 461 Z M 41.152344 460 "/>
</clipPath>
<clipPath id="clip-1">
<path clip-rule="nonzero" d="M 41.152344 341 L 1074.523438 341 L 1074.523438 343 L 41.152344 343 Z M 41.152344 341 "/>
</clipPath>
<clipPath id="clip-2">
<path clip-rule="nonzero" d="M 41.152344 223 L 1074.523438 223 L 1074.523438 224 L 41.152344 224 Z M 41.152344 223 "/>
</clipPath>
<clipPath id="clip-3">
<path clip-rule="nonzero" d="M 41.152344 105 L 1074.523438 105 L 1074.523438 106 L 41.152344 106 Z M 41.152344 105 "/>
</clipPath>
<clipPath id="clip-4">
<path clip-rule="nonzero" d="M 175 23.957031 L 177 23.957031 L 177 542.847656 L 175 542.847656 Z M 175 23.957031 "/>
</clipPath>
<clipPath id="clip-5">
<path clip-rule="nonzero" d="M 469 23.957031 L 471 23.957031 L 471 542.847656 L 469 542.847656 Z M 469 23.957031 "/>
</clipPath>
<clipPath id="clip-6">
<path clip-rule="nonzero" d="M 763 23.957031 L 764 23.957031 L 764 542.847656 L 763 542.847656 Z M 763 23.957031 "/>
</clipPath>
<clipPath id="clip-7">
<path clip-rule="nonzero" d="M 1056 23.957031 L 1058 23.957031 L 1058 542.847656 L 1056 542.847656 Z M 1056 23.957031 "/>
</clipPath>
<clipPath id="clip-8">
<path clip-rule="nonzero" d="M 41.152344 518 L 1074.523438 518 L 1074.523438 520 L 41.152344 520 Z M 41.152344 518 "/>
</clipPath>
<clipPath id="clip-9">
<path clip-rule="nonzero" d="M 41.152344 400 L 1074.523438 400 L 1074.523438 402 L 41.152344 402 Z M 41.152344 400 "/>
</clipPath>
<clipPath id="clip-10">
<path clip-rule="nonzero" d="M 41.152344 282 L 1074.523438 282 L 1074.523438 284 L 41.152344 284 Z M 41.152344 282 "/>
</clipPath>
<clipPath id="clip-11">
<path clip-rule="nonzero" d="M 41.152344 164 L 1074.523438 164 L 1074.523438 166 L 41.152344 166 Z M 41.152344 164 "/>
</clipPath>
<clipPath id="clip-12">
<path clip-rule="nonzero" d="M 41.152344 45 L 1074.523438 45 L 1074.523438 47 L 41.152344 47 Z M 41.152344 45 "/>
</clipPath>
<clipPath id="clip-13">
<path clip-rule="nonzero" d="M 322 23.957031 L 324 23.957031 L 324 542.847656 L 322 542.847656 Z M 322 23.957031 "/>
</clipPath>
<clipPath id="clip-14">
<path clip-rule="nonzero" d="M 616 23.957031 L 618 23.957031 L 618 542.847656 L 616 542.847656 Z M 616 23.957031 "/>
</clipPath>
<clipPath id="clip-15">
<path clip-rule="nonzero" d="M 909 23.957031 L 911 23.957031 L 911 542.847656 L 909 542.847656 Z M 909 23.957031 "/>
</clipPath>
<clipPath id="clip-16">
<path clip-rule="nonzero" d="M 557 23.957031 L 559 23.957031 L 559 542.847656 L 557 542.847656 Z M 557 23.957031 "/>
</clipPath>
</defs>
<rect x="-108" y="-57.6" width="1296" height="691.2" fill="rgb(100%, 100%, 100%)" fill-opacity="1"/>
<rect x="-108" y="-57.6" width="1296" height="691.2" fill="rgb(100%, 100%, 100%)" fill-opacity="1"/>
<g clip-path="url(#clip-0)">
<path fill="none" stroke-width="0.533489" stroke-linecap="butt" stroke-linejoin="round" stroke="rgb(92.156863%, 92.156863%, 92.156863%)" stroke-opacity="1" stroke-miterlimit="10" d="M 41.152344 460.28125 L 1074.519531 460.28125 "/>
</g>
<g clip-path="url(#clip-1)">
<path fill="none" stroke-width="0.533489" stroke-linecap="butt" stroke-linejoin="round" stroke="rgb(92.156863%, 92.156863%, 92.156863%)" stroke-opacity="1" stroke-miterlimit="10" d="M 41.152344 341.996094 L 1074.519531 341.996094 "/>
</g>
<g clip-path="url(#clip-2)">
<path fill="none" stroke-width="0.533489" stroke-linecap="butt" stroke-linejoin="round" stroke="rgb(92.156863%, 92.156863%, 92.156863%)" stroke-opacity="1" stroke-miterlimit="10" d="M 41.152344 223.714844 L 1074.519531 223.714844 "/>
</g>
<g clip-path="url(#clip-3)">
<path fill="none" stroke-width="0.533489" stroke-linecap="butt" stroke-linejoin="round" stroke="rgb(92.156863%, 92.156863%, 92.156863%)" stroke-opacity="1" stroke-miterlimit="10" d="M 41.152344 105.429688 L 1074.519531 105.429688 "/>
</g>
<g clip-path="url(#clip-4)">
<path fill="none" stroke-width="0.533489" stroke-linecap="butt" stroke-linejoin="round" stroke="rgb(92.156863%, 92.156863%, 92.156863%)" stroke-opacity="1" stroke-miterlimit="10" d="M 176.191406 542.847656 L 176.191406 23.957031 "/>
</g>
<g clip-path="url(#clip-5)">
<path fill="none" stroke-width="0.533489" stroke-linecap="butt" stroke-linejoin="round" stroke="rgb(92.156863%, 92.156863%, 92.156863%)" stroke-opacity="1" stroke-miterlimit="10" d="M 469.765625 542.847656 L 469.765625 23.957031 "/>
</g>
<g clip-path="url(#clip-6)">
<path fill="none" stroke-width="0.533489" stroke-linecap="butt" stroke-linejoin="round" stroke="rgb(92.156863%, 92.156863%, 92.156863%)" stroke-opacity="1" stroke-miterlimit="10" d="M 763.335938 542.847656 L 763.335938 23.957031 "/>
</g>
<g clip-path="url(#clip-7)">
<path fill="none" stroke-width="0.533489" stroke-linecap="butt" stroke-linejoin="round" stroke="rgb(92.156863%, 92.156863%, 92.156863%)" stroke-opacity="1" stroke-miterlimit="10" d="M 1056.90625 542.847656 L 1056.90625 23.957031 "/>
</g>
<g clip-path="url(#clip-8)">
<path fill="none" stroke-width="1.066978" stroke-linecap="butt" stroke-linejoin="round" stroke="rgb(92.156863%, 92.156863%, 92.156863%)" stroke-opacity="1" stroke-miterlimit="10" d="M 41.152344 519.421875 L 1074.519531 519.421875 "/>
</g>
<g clip-path="url(#clip-9)">
<path fill="none" stroke-width="1.066978" stroke-linecap="butt" stroke-linejoin="round" stroke="rgb(92.156863%, 92.156863%, 92.156863%)" stroke-opacity="1" stroke-miterlimit="10" d="M 41.152344 401.140625 L 1074.519531 401.140625 "/>
</g>
<g clip-path="url(#clip-10)">
<path fill="none" stroke-width="1.066978" stroke-linecap="butt" stroke-linejoin="round" stroke="rgb(92.156863%, 92.156863%, 92.156863%)" stroke-opacity="1" stroke-miterlimit="10" d="M 41.152344 282.855469 L 1074.519531 282.855469 "/>
</g>
<g clip-path="url(#clip-11)">
<path fill="none" stroke-width="1.066978" stroke-linecap="butt" stroke-linejoin="round" stroke="rgb(92.156863%, 92.156863%, 92.156863%)" stroke-opacity="1" stroke-miterlimit="10" d="M 41.152344 164.574219 L 1074.519531 164.574219 "/>
</g>
<g clip-path="url(#clip-12)">
<path fill="none" stroke-width="1.066978" stroke-linecap="butt" stroke-linejoin="round" stroke="rgb(92.156863%, 92.156863%, 92.156863%)" stroke-opacity="1" stroke-miterlimit="10" d="M 41.152344 46.289062 L 1074.519531 46.289062 "/>
</g>
<g clip-path="url(#clip-13)">
<path fill="none" stroke-width="1.066978" stroke-linecap="butt" stroke-linejoin="round" stroke="rgb(92.156863%, 92.156863%, 92.156863%)" stroke-opacity="1" stroke-miterlimit="10" d="M 322.980469 542.847656 L 322.980469 23.957031 "/>
</g>
<g clip-path="url(#clip-14)">
<path fill="none" stroke-width="1.066978" stroke-linecap="butt" stroke-linejoin="round" stroke="rgb(92.156863%, 92.156863%, 92.156863%)" stroke-opacity="1" stroke-miterlimit="10" d="M 616.550781 542.847656 L 616.550781 23.957031 "/>
</g>
<g clip-path="url(#clip-15)">
<path fill="none" stroke-width="1.066978" stroke-linecap="butt" stroke-linejoin="round" stroke="rgb(92.156863%, 92.156863%, 92.156863%)" stroke-opacity="1" stroke-miterlimit="10" d="M 910.121094 542.847656 L 910.121094 23.957031 "/>
</g>
<path fill="none" stroke-width="1.066978" stroke-linecap="butt" stroke-linejoin="round" stroke="rgb(0%, 0%, 100%)" stroke-opacity="1" stroke-miterlimit="10" d="M 88.121094 519.261719 L 90.003906 519.253906 L 90.941406 519.246094 L 91.882812 519.242188 L 92.824219 519.234375 L 93.765625 519.230469 L 94.703125 519.222656 L 95.644531 519.21875 L 97.527344 519.203125 L 98.464844 519.199219 L 101.289062 519.175781 L 102.226562 519.167969 L 104.109375 519.152344 L 105.046875 519.144531 L 105.988281 519.132812 L 107.871094 519.117188 L 108.808594 519.105469 L 109.75 519.097656 L 111.632812 519.074219 L 112.570312 519.066406 L 115.394531 519.03125 L 116.332031 519.019531 L 118.214844 518.996094 L 119.152344 518.980469 L 120.09375 518.96875 L 121.035156 518.953125 L 121.976562 518.941406 L 122.914062 518.925781 L 125.738281 518.878906 L 126.675781 518.863281 L 128.558594 518.832031 L 129.5 518.8125 L 130.4375 518.792969 L 131.378906 518.777344 L 132.320312 518.757812 L 133.257812 518.738281 L 134.199219 518.71875 L 135.140625 518.695312 L 136.082031 518.675781 L 137.019531 518.652344 L 137.960938 518.632812 L 139.84375 518.585938 L 140.78125 518.5625 L 141.722656 518.535156 L 142.664062 518.511719 L 143.605469 518.484375 L 144.542969 518.457031 L 146.425781 518.402344 L 147.363281 518.375 L 150.1875 518.28125 L 151.125 518.25 L 152.066406 518.214844 L 153.007812 518.183594 L 153.949219 518.148438 L 154.886719 518.113281 L 155.828125 518.074219 L 156.769531 518.039062 L 157.710938 518 L 158.648438 517.960938 L 159.589844 517.921875 L 161.472656 517.835938 L 162.410156 517.792969 L 163.351562 517.75 L 164.292969 517.703125 L 165.230469 517.65625 L 167.113281 517.5625 L 168.054688 517.511719 L 168.992188 517.457031 L 169.933594 517.40625 L 171.816406 517.296875 L 172.753906 517.242188 L 174.636719 517.125 L 175.578125 517.0625 L 176.515625 517 L 177.457031 516.9375 L 178.398438 516.871094 L 179.335938 516.804688 L 180.277344 516.734375 L 181.21875 516.667969 L 182.160156 516.59375 L 183.097656 516.519531 L 184.980469 516.371094 L 185.921875 516.289062 L 186.859375 516.210938 L 187.800781 516.128906 L 189.683594 515.957031 L 190.621094 515.871094 L 191.5625 515.78125 L 192.503906 515.6875 L 193.441406 515.59375 L 194.382812 515.5 L 195.324219 515.398438 L 196.265625 515.300781 L 197.203125 515.195312 L 199.085938 514.984375 L 200.027344 514.875 L 200.964844 514.761719 L 201.90625 514.648438 L 202.847656 514.53125 L 203.789062 514.410156 L 204.726562 514.289062 L 205.667969 514.164062 L 206.609375 514.035156 L 207.546875 513.90625 L 208.488281 513.773438 L 209.429688 513.636719 L 210.371094 513.496094 L 211.308594 513.355469 L 212.25 513.210938 L 213.191406 513.0625 L 214.132812 512.910156 L 215.070312 512.757812 L 216.011719 512.601562 L 216.953125 512.441406 L 217.894531 512.277344 L 218.832031 512.109375 L 219.773438 511.9375 L 220.714844 511.761719 L 221.652344 511.585938 L 223.535156 511.21875 L 224.476562 511.03125 L 225.414062 510.835938 L 226.355469 510.640625 L 227.296875 510.441406 L 228.238281 510.234375 L 229.175781 510.027344 L 230.117188 509.816406 L 232 509.378906 L 232.9375 509.152344 L 233.878906 508.921875 L 234.820312 508.6875 L 235.757812 508.449219 L 236.699219 508.207031 L 237.640625 507.957031 L 238.582031 507.703125 L 239.519531 507.449219 L 241.402344 506.917969 L 242.34375 506.644531 L 243.28125 506.367188 L 244.222656 506.085938 L 245.164062 505.796875 L 246.105469 505.503906 L 247.042969 505.207031 L 247.984375 504.902344 L 248.925781 504.59375 L 249.867188 504.277344 L 250.804688 503.957031 L 251.746094 503.628906 L 252.6875 503.296875 L 253.625 502.957031 L 254.566406 502.613281 L 255.507812 502.261719 L 256.449219 501.90625 L 257.386719 501.542969 L 258.328125 501.171875 L 259.269531 500.796875 L 260.210938 500.414062 L 261.148438 500.027344 L 262.089844 499.628906 L 263.03125 499.226562 L 263.972656 498.816406 L 264.910156 498.402344 L 265.851562 497.976562 L 266.792969 497.546875 L 267.730469 497.109375 L 268.671875 496.664062 L 269.613281 496.210938 L 270.554688 495.753906 L 271.492188 495.285156 L 272.433594 494.808594 L 273.375 494.328125 L 274.316406 493.835938 L 275.253906 493.335938 L 276.195312 492.832031 L 277.136719 492.316406 L 278.078125 491.792969 L 279.015625 491.261719 L 279.957031 490.722656 L 280.898438 490.175781 L 281.835938 489.617188 L 282.777344 489.050781 L 283.71875 488.476562 L 284.660156 487.894531 L 285.597656 487.304688 L 286.539062 486.703125 L 287.480469 486.09375 L 288.421875 485.472656 L 289.359375 484.84375 L 290.300781 484.207031 L 291.242188 483.558594 L 292.183594 482.902344 L 293.121094 482.238281 L 294.0625 481.5625 L 295.003906 480.875 L 295.941406 480.179688 L 296.882812 479.472656 L 297.824219 478.757812 L 298.765625 478.03125 L 299.703125 477.292969 L 300.644531 476.546875 L 301.585938 475.789062 L 302.527344 475.023438 L 303.464844 474.246094 L 304.40625 473.457031 L 305.347656 472.65625 L 306.289062 471.84375 L 307.226562 471.023438 L 308.167969 470.191406 L 309.109375 469.347656 L 310.046875 468.492188 L 310.988281 467.625 L 311.929688 466.75 L 312.871094 465.859375 L 313.808594 464.957031 L 314.75 464.046875 L 315.691406 463.121094 L 316.632812 462.1875 L 317.570312 461.238281 L 318.511719 460.28125 L 319.453125 459.308594 L 320.394531 458.324219 L 321.332031 457.332031 L 322.273438 456.324219 L 323.214844 455.304688 L 324.152344 454.269531 L 325.09375 453.226562 L 326.035156 452.171875 L 326.976562 451.101562 L 327.914062 450.019531 L 328.855469 448.925781 L 329.796875 447.816406 L 330.738281 446.699219 L 331.675781 445.566406 L 332.617188 444.417969 L 333.558594 443.261719 L 334.5 442.089844 L 335.4375 440.90625 L 336.378906 439.707031 L 337.320312 438.496094 L 338.261719 437.273438 L 339.199219 436.039062 L 340.140625 434.789062 L 341.082031 433.523438 L 342.019531 432.246094 L 342.960938 430.957031 L 343.902344 429.65625 L 344.84375 428.339844 L 345.78125 427.007812 L 346.722656 425.667969 L 347.664062 424.308594 L 348.605469 422.941406 L 349.542969 421.558594 L 350.484375 420.160156 L 351.425781 418.75 L 352.367188 417.324219 L 353.304688 415.886719 L 354.246094 414.4375 L 355.1875 412.972656 L 356.125 411.496094 L 357.066406 410.003906 L 358.007812 408.5 L 358.949219 406.980469 L 359.886719 405.449219 L 360.828125 403.902344 L 361.769531 402.34375 L 362.710938 400.773438 L 363.648438 399.1875 L 364.589844 397.589844 L 365.53125 395.976562 L 366.472656 394.351562 L 367.410156 392.710938 L 368.351562 391.058594 L 369.292969 389.394531 L 370.230469 387.714844 L 371.171875 386.023438 L 372.113281 384.320312 L 373.054688 382.601562 L 373.992188 380.871094 L 374.933594 379.128906 L 375.875 377.371094 L 376.816406 375.601562 L 377.753906 373.820312 L 378.695312 372.027344 L 379.636719 370.21875 L 380.578125 368.402344 L 381.515625 366.570312 L 382.457031 364.726562 L 383.398438 362.867188 L 384.335938 361 L 385.277344 359.121094 L 386.21875 357.226562 L 387.160156 355.324219 L 388.097656 353.40625 L 389.039062 351.480469 L 389.980469 349.542969 L 390.921875 347.589844 L 391.859375 345.628906 L 392.800781 343.65625 L 393.742188 341.671875 L 394.683594 339.679688 L 395.621094 337.675781 L 396.5625 335.660156 L 397.503906 333.632812 L 398.441406 331.59375 L 399.382812 329.550781 L 400.324219 327.492188 L 401.265625 325.425781 L 402.203125 323.347656 L 403.144531 321.265625 L 404.085938 319.167969 L 405.027344 317.066406 L 405.964844 314.953125 L 406.90625 312.828125 L 407.847656 310.699219 L 408.789062 308.558594 L 409.726562 306.414062 L 410.667969 304.257812 L 411.609375 302.09375 L 412.550781 299.921875 L 413.488281 297.746094 L 414.429688 295.558594 L 415.371094 293.367188 L 416.308594 291.167969 L 417.25 288.960938 L 418.191406 286.746094 L 419.132812 284.527344 L 420.070312 282.304688 L 421.011719 280.074219 L 422.894531 275.597656 L 423.832031 273.347656 L 424.773438 271.097656 L 425.714844 268.84375 L 426.65625 266.582031 L 427.59375 264.320312 L 429.476562 259.78125 L 430.414062 257.507812 L 431.355469 255.230469 L 433.238281 250.667969 L 434.175781 248.382812 L 435.117188 246.09375 L 436.058594 243.808594 L 437 241.519531 L 437.9375 239.226562 L 438.878906 236.9375 L 440.761719 232.351562 L 441.699219 230.058594 L 442.640625 227.769531 L 443.582031 225.476562 L 444.519531 223.1875 L 445.460938 220.898438 L 447.34375 216.328125 L 448.28125 214.046875 L 449.222656 211.765625 L 450.164062 209.488281 L 451.105469 207.214844 L 452.042969 204.945312 L 452.984375 202.675781 L 453.925781 200.414062 L 454.867188 198.15625 L 455.804688 195.902344 L 456.746094 193.652344 L 457.6875 191.410156 L 458.625 189.171875 L 459.566406 186.941406 L 460.507812 184.71875 L 461.449219 182.5 L 462.386719 180.289062 L 463.328125 178.085938 L 464.269531 175.886719 L 465.210938 173.699219 L 466.148438 171.519531 L 467.089844 169.351562 L 468.03125 167.1875 L 468.972656 165.035156 L 469.910156 162.894531 L 470.851562 160.761719 L 471.792969 158.636719 L 472.730469 156.527344 L 473.671875 154.425781 L 474.613281 152.335938 L 475.554688 150.261719 L 476.492188 148.195312 L 477.433594 146.140625 L 478.375 144.101562 L 479.316406 142.074219 L 480.253906 140.058594 L 481.195312 138.058594 L 482.136719 136.074219 L 483.078125 134.101562 L 484.015625 132.144531 L 484.957031 130.203125 L 485.898438 128.277344 L 486.835938 126.367188 L 487.777344 124.46875 L 488.71875 122.589844 L 489.660156 120.730469 L 490.597656 118.882812 L 491.539062 117.058594 L 492.480469 115.246094 L 493.421875 113.453125 L 494.359375 111.679688 L 495.300781 109.925781 L 496.242188 108.1875 L 497.183594 106.46875 L 498.121094 104.769531 L 499.0625 103.09375 L 500.003906 101.433594 L 500.945312 99.796875 L 501.882812 98.179688 L 502.824219 96.582031 L 503.765625 95.003906 L 504.703125 93.453125 L 505.644531 91.917969 L 506.585938 90.410156 L 507.527344 88.921875 L 508.464844 87.453125 L 509.40625 86.011719 L 510.347656 84.59375 L 511.289062 83.195312 L 512.226562 81.824219 L 513.167969 80.472656 L 514.109375 79.148438 L 515.050781 77.847656 L 515.988281 76.570312 L 516.929688 75.320312 L 517.871094 74.09375 L 518.808594 72.894531 L 519.75 71.71875 L 520.691406 70.566406 L 521.632812 69.445312 L 522.570312 68.34375 L 523.511719 67.273438 L 524.453125 66.230469 L 525.394531 65.210938 L 526.332031 64.21875 L 527.273438 63.253906 L 528.214844 62.316406 L 529.15625 61.410156 L 530.09375 60.527344 L 531.035156 59.671875 L 531.976562 58.847656 L 532.914062 58.046875 L 533.855469 57.277344 L 534.796875 56.535156 L 535.738281 55.824219 L 536.675781 55.140625 L 537.617188 54.484375 L 538.558594 53.855469 L 539.5 53.257812 L 540.4375 52.691406 L 541.378906 52.152344 L 542.320312 51.640625 L 543.261719 51.164062 L 544.199219 50.710938 L 545.140625 50.289062 L 546.082031 49.898438 L 547.019531 49.539062 L 547.960938 49.207031 L 548.902344 48.90625 L 549.84375 48.632812 L 550.78125 48.390625 L 551.722656 48.179688 L 552.664062 48 L 553.605469 47.847656 L 554.542969 47.726562 L 555.484375 47.636719 L 556.425781 47.574219 L 557.367188 47.542969 L 558.304688 47.542969 L 559.246094 47.574219 L 560.1875 47.636719 L 561.125 47.726562 L 562.066406 47.847656 L 563.007812 48 L 563.949219 48.179688 L 564.886719 48.390625 L 565.828125 48.632812 L 566.769531 48.90625 L 567.710938 49.207031 L 568.648438 49.539062 L 569.589844 49.898438 L 570.53125 50.289062 L 571.472656 50.710938 L 572.410156 51.164062 L 573.351562 51.640625 L 574.292969 52.152344 L 575.230469 52.691406 L 576.171875 53.257812 L 577.113281 53.855469 L 578.054688 54.484375 L 578.992188 55.140625 L 579.933594 55.824219 L 580.875 56.535156 L 581.816406 57.277344 L 582.753906 58.046875 L 583.695312 58.847656 L 584.636719 59.671875 L 585.578125 60.527344 L 586.515625 61.410156 L 587.457031 62.316406 L 588.398438 63.253906 L 589.339844 64.21875 L 590.277344 65.210938 L 591.21875 66.230469 L 592.160156 67.273438 L 593.097656 68.34375 L 594.039062 69.445312 L 594.980469 70.566406 L 595.921875 71.71875 L 596.859375 72.894531 L 597.800781 74.09375 L 598.742188 75.320312 L 599.683594 76.570312 L 600.621094 77.847656 L 601.5625 79.148438 L 602.503906 80.472656 L 603.445312 81.824219 L 604.382812 83.195312 L 605.324219 84.59375 L 606.265625 86.011719 L 607.203125 87.453125 L 608.144531 88.921875 L 609.085938 90.410156 L 610.027344 91.917969 L 610.964844 93.453125 L 611.90625 95.003906 L 612.847656 96.582031 L 613.789062 98.179688 L 614.726562 99.796875 L 615.667969 101.433594 L 616.609375 103.09375 L 617.550781 104.769531 L 618.488281 106.46875 L 619.429688 108.1875 L 620.371094 109.925781 L 621.308594 111.679688 L 622.25 113.453125 L 623.191406 115.246094 L 624.132812 117.058594 L 625.070312 118.882812 L 626.011719 120.730469 L 626.953125 122.589844 L 627.894531 124.46875 L 628.832031 126.367188 L 629.773438 128.277344 L 630.714844 130.203125 L 631.65625 132.144531 L 632.59375 134.101562 L 633.535156 136.074219 L 634.476562 138.058594 L 635.414062 140.058594 L 636.355469 142.074219 L 637.296875 144.101562 L 638.238281 146.140625 L 639.175781 148.195312 L 640.117188 150.261719 L 641.058594 152.335938 L 642 154.425781 L 642.9375 156.527344 L 643.878906 158.636719 L 644.820312 160.761719 L 645.761719 162.894531 L 646.699219 165.035156 L 647.640625 167.1875 L 648.582031 169.351562 L 649.519531 171.519531 L 650.460938 173.699219 L 651.402344 175.886719 L 652.34375 178.085938 L 653.28125 180.289062 L 654.222656 182.5 L 655.164062 184.71875 L 656.105469 186.941406 L 657.042969 189.171875 L 657.984375 191.410156 L 658.925781 193.652344 L 659.867188 195.902344 L 660.804688 198.15625 L 661.746094 200.414062 L 662.6875 202.675781 L 663.628906 204.945312 L 664.566406 207.214844 L 665.507812 209.488281 L 666.449219 211.765625 L 667.386719 214.046875 L 668.328125 216.328125 L 670.210938 220.898438 L 671.148438 223.1875 L 672.089844 225.476562 L 673.03125 227.769531 L 673.972656 230.058594 L 674.910156 232.351562 L 676.792969 236.9375 L 677.734375 239.226562 L 678.671875 241.519531 L 679.613281 243.808594 L 680.554688 246.09375 L 681.492188 248.382812 L 682.433594 250.667969 L 684.316406 255.230469 L 685.253906 257.507812 L 686.195312 259.78125 L 688.078125 264.320312 L 689.015625 266.582031 L 689.957031 268.84375 L 690.898438 271.097656 L 691.839844 273.347656 L 692.777344 275.597656 L 694.660156 280.074219 L 695.597656 282.304688 L 696.539062 284.527344 L 697.480469 286.746094 L 698.421875 288.960938 L 699.359375 291.167969 L 700.300781 293.367188 L 701.242188 295.558594 L 702.183594 297.746094 L 703.121094 299.921875 L 704.0625 302.09375 L 705.003906 304.257812 L 705.945312 306.414062 L 706.882812 308.558594 L 707.824219 310.699219 L 708.765625 312.828125 L 709.703125 314.953125 L 710.644531 317.066406 L 711.585938 319.167969 L 712.527344 321.265625 L 713.464844 323.347656 L 714.40625 325.425781 L 715.347656 327.492188 L 716.289062 329.550781 L 717.226562 331.59375 L 718.167969 333.632812 L 719.109375 335.660156 L 720.050781 337.675781 L 720.988281 339.679688 L 721.929688 341.671875 L 722.871094 343.65625 L 723.808594 345.628906 L 724.75 347.589844 L 725.691406 349.542969 L 726.632812 351.480469 L 727.570312 353.40625 L 728.511719 355.324219 L 729.453125 357.226562 L 730.394531 359.121094 L 731.332031 361 L 732.273438 362.867188 L 733.214844 364.726562 L 734.15625 366.570312 L 735.09375 368.402344 L 736.035156 370.21875 L 736.976562 372.027344 L 737.914062 373.820312 L 738.855469 375.601562 L 739.796875 377.371094 L 740.738281 379.128906 L 741.675781 380.871094 L 742.617188 382.601562 L 743.558594 384.320312 L 744.5 386.023438 L 745.4375 387.714844 L 746.378906 389.394531 L 747.320312 391.058594 L 748.261719 392.710938 L 749.199219 394.351562 L 750.140625 395.976562 L 751.082031 397.589844 L 752.023438 399.1875 L 752.960938 400.773438 L 753.902344 402.34375 L 754.84375 403.902344 L 755.78125 405.449219 L 756.722656 406.980469 L 757.664062 408.5 L 758.605469 410.003906 L 759.542969 411.496094 L 760.484375 412.972656 L 761.425781 414.4375 L 762.367188 415.886719 L 763.304688 417.324219 L 764.246094 418.75 L 765.1875 420.160156 L 766.128906 421.558594 L 767.066406 422.941406 L 768.007812 424.308594 L 768.949219 425.667969 L 769.886719 427.007812 L 770.828125 428.339844 L 771.769531 429.65625 L 772.710938 430.957031 L 773.648438 432.246094 L 774.589844 433.523438 L 775.53125 434.789062 L 776.472656 436.039062 L 777.410156 437.273438 L 778.351562 438.496094 L 779.292969 439.707031 L 780.234375 440.90625 L 781.171875 442.089844 L 782.113281 443.261719 L 783.054688 444.417969 L 783.992188 445.566406 L 784.933594 446.699219 L 785.875 447.816406 L 786.816406 448.925781 L 787.753906 450.019531 L 788.695312 451.101562 L 789.636719 452.171875 L 790.578125 453.226562 L 791.515625 454.269531 L 792.457031 455.304688 L 793.398438 456.324219 L 794.339844 457.332031 L 795.277344 458.324219 L 796.21875 459.308594 L 797.160156 460.28125 L 798.097656 461.238281 L 799.039062 462.1875 L 799.980469 463.121094 L 800.921875 464.046875 L 801.859375 464.957031 L 802.800781 465.859375 L 803.742188 466.75 L 804.683594 467.625 L 805.621094 468.492188 L 806.5625 469.347656 L 807.503906 470.191406 L 808.445312 471.023438 L 809.382812 471.84375 L 810.324219 472.65625 L 811.265625 473.457031 L 812.203125 474.246094 L 813.144531 475.023438 L 814.085938 475.789062 L 815.027344 476.546875 L 815.964844 477.292969 L 816.90625 478.03125 L 817.847656 478.757812 L 818.789062 479.472656 L 819.726562 480.179688 L 820.667969 480.875 L 821.609375 481.5625 L 822.550781 482.238281 L 823.488281 482.902344 L 824.429688 483.558594 L 825.371094 484.207031 L 826.308594 484.84375 L 827.25 485.472656 L 828.191406 486.09375 L 829.132812 486.703125 L 830.070312 487.304688 L 831.011719 487.894531 L 831.953125 488.476562 L 832.894531 489.050781 L 833.832031 489.617188 L 834.773438 490.175781 L 835.714844 490.722656 L 836.65625 491.261719 L 837.59375 491.792969 L 838.535156 492.316406 L 839.476562 492.832031 L 840.417969 493.335938 L 841.355469 493.835938 L 842.296875 494.328125 L 843.238281 494.808594 L 844.175781 495.285156 L 845.117188 495.753906 L 846.058594 496.210938 L 847 496.664062 L 847.9375 497.109375 L 848.878906 497.546875 L 849.820312 497.976562 L 850.761719 498.402344 L 851.699219 498.816406 L 852.640625 499.226562 L 853.582031 499.628906 L 854.523438 500.027344 L 855.460938 500.414062 L 856.402344 500.796875 L 857.34375 501.171875 L 858.28125 501.542969 L 859.222656 501.90625 L 860.164062 502.261719 L 861.105469 502.613281 L 862.042969 502.957031 L 862.984375 503.296875 L 863.925781 503.628906 L 864.867188 503.957031 L 865.804688 504.277344 L 866.746094 504.59375 L 867.6875 504.902344 L 868.628906 505.207031 L 869.566406 505.503906 L 870.507812 505.796875 L 871.449219 506.085938 L 872.386719 506.367188 L 873.328125 506.644531 L 874.269531 506.917969 L 875.210938 507.183594 L 876.148438 507.449219 L 878.03125 507.957031 L 878.972656 508.207031 L 879.910156 508.449219 L 880.851562 508.6875 L 881.792969 508.921875 L 882.734375 509.152344 L 883.671875 509.378906 L 885.554688 509.816406 L 886.492188 510.027344 L 888.375 510.441406 L 889.316406 510.640625 L 890.253906 510.835938 L 891.195312 511.03125 L 892.136719 511.21875 L 893.078125 511.402344 L 894.015625 511.585938 L 895.898438 511.9375 L 896.839844 512.109375 L 897.777344 512.277344 L 898.71875 512.441406 L 899.660156 512.601562 L 900.597656 512.757812 L 902.480469 513.0625 L 903.421875 513.210938 L 904.359375 513.355469 L 906.242188 513.636719 L 907.183594 513.773438 L 908.121094 513.90625 L 910.003906 514.164062 L 910.945312 514.289062 L 911.882812 514.410156 L 912.824219 514.53125 L 913.765625 514.648438 L 914.707031 514.761719 L 915.644531 514.875 L 916.585938 514.984375 L 917.527344 515.089844 L 918.464844 515.195312 L 919.40625 515.300781 L 920.347656 515.398438 L 921.289062 515.5 L 922.226562 515.59375 L 924.109375 515.78125 L 925.050781 515.871094 L 925.988281 515.957031 L 927.871094 516.128906 L 928.8125 516.210938 L 929.75 516.289062 L 930.691406 516.371094 L 931.632812 516.445312 L 932.570312 516.519531 L 934.453125 516.667969 L 935.394531 516.734375 L 936.332031 516.804688 L 938.214844 516.9375 L 939.15625 517 L 940.09375 517.0625 L 941.035156 517.125 L 942.917969 517.242188 L 943.855469 517.296875 L 945.738281 517.40625 L 946.675781 517.457031 L 947.617188 517.511719 L 948.558594 517.5625 L 949.5 517.609375 L 950.4375 517.65625 L 952.320312 517.75 L 953.261719 517.792969 L 954.199219 517.835938 L 956.082031 517.921875 L 957.023438 517.960938 L 957.960938 518 L 958.902344 518.039062 L 959.84375 518.074219 L 960.78125 518.113281 L 962.664062 518.183594 L 963.605469 518.214844 L 964.542969 518.25 L 967.367188 518.34375 L 968.304688 518.375 L 971.128906 518.457031 L 972.066406 518.484375 L 973.007812 518.511719 L 973.949219 518.535156 L 974.886719 518.5625 L 977.710938 518.632812 L 978.648438 518.652344 L 979.589844 518.675781 L 980.53125 518.695312 L 981.472656 518.71875 L 982.410156 518.738281 L 984.292969 518.777344 L 985.234375 518.792969 L 986.171875 518.8125 L 987.113281 518.832031 L 988.054688 518.847656 L 988.992188 518.863281 L 991.816406 518.910156 L 992.753906 518.925781 L 993.695312 518.941406 L 994.636719 518.953125 L 995.578125 518.96875 L 996.515625 518.980469 L 997.457031 518.996094 L 999.339844 519.019531 L 1000.277344 519.03125 L 1003.101562 519.066406 L 1004.039062 519.074219 L 1005.921875 519.097656 L 1006.859375 519.105469 L 1007.800781 519.117188 L 1009.683594 519.132812 L 1010.621094 519.144531 L 1013.445312 519.167969 L 1014.382812 519.175781 L 1017.207031 519.199219 L 1018.144531 519.203125 L 1020.027344 519.21875 L 1020.964844 519.222656 L 1021.90625 519.230469 L 1022.847656 519.234375 L 1023.789062 519.242188 L 1024.726562 519.246094 L 1025.667969 519.253906 L 1027.550781 519.261719 "/>
<g clip-path="url(#clip-16)">
<path fill="none" stroke-width="1.066978" stroke-linecap="butt" stroke-linejoin="round" stroke="rgb(0%, 0%, 0%)" stroke-opacity="1" stroke-dasharray="4.267913 4.267913" stroke-miterlimit="10" d="M 557.835938 542.847656 L 557.835938 23.957031 "/>
</g>
<g fill="rgb(30.196078%, 30.196078%, 30.196078%)" fill-opacity="1">
<use xlink:href="#glyph-0-1" x="19.21875" y="522.698242"/>
<use xlink:href="#glyph-0-2" x="24.21875" y="522.698242"/>
<use xlink:href="#glyph-0-1" x="26.21875" y="522.698242"/>
<use xlink:href="#glyph-0-1" x="31.21875" y="522.698242"/>
</g>
<g fill="rgb(30.196078%, 30.196078%, 30.196078%)" fill-opacity="1">
<use xlink:href="#glyph-0-1" x="19.21875" y="404.416992"/>
<use xlink:href="#glyph-0-2" x="24.21875" y="404.416992"/>
<use xlink:href="#glyph-0-1" x="26.21875" y="404.416992"/>
<use xlink:href="#glyph-0-3" x="31.21875" y="404.416992"/>
</g>
<g fill="rgb(30.196078%, 30.196078%, 30.196078%)" fill-opacity="1">
<use xlink:href="#glyph-0-1" x="19.21875" y="286.131836"/>
<use xlink:href="#glyph-0-2" x="24.21875" y="286.131836"/>
<use xlink:href="#glyph-0-1" x="26.21875" y="286.131836"/>
<use xlink:href="#glyph-0-4" x="31.21875" y="286.131836"/>
</g>
<g fill="rgb(30.196078%, 30.196078%, 30.196078%)" fill-opacity="1">
<use xlink:href="#glyph-0-1" x="19.21875" y="167.850586"/>
<use xlink:href="#glyph-0-2" x="24.21875" y="167.850586"/>
<use xlink:href="#glyph-0-1" x="26.21875" y="167.850586"/>
<use xlink:href="#glyph-0-5" x="31.21875" y="167.850586"/>
</g>
<g fill="rgb(30.196078%, 30.196078%, 30.196078%)" fill-opacity="1">
<use xlink:href="#glyph-0-1" x="19.21875" y="49.56543"/>
<use xlink:href="#glyph-0-2" x="24.21875" y="49.56543"/>
<use xlink:href="#glyph-0-1" x="26.21875" y="49.56543"/>
<use xlink:href="#glyph-0-6" x="31.21875" y="49.56543"/>
</g>
<g fill="rgb(30.196078%, 30.196078%, 30.196078%)" fill-opacity="1">
<use xlink:href="#glyph-0-3" x="315.480469" y="554.557617"/>
<use xlink:href="#glyph-0-7" x="320.480469" y="554.557617"/>
<use xlink:href="#glyph-0-1" x="325.480469" y="554.557617"/>
</g>
<g fill="rgb(30.196078%, 30.196078%, 30.196078%)" fill-opacity="1">
<use xlink:href="#glyph-0-3" x="609.050781" y="554.557617"/>
<use xlink:href="#glyph-0-8" x="614.050781" y="554.557617"/>
<use xlink:href="#glyph-0-7" x="619.050781" y="554.557617"/>
</g>
<g fill="rgb(30.196078%, 30.196078%, 30.196078%)" fill-opacity="1">
<use xlink:href="#glyph-0-4" x="902.621094" y="554.557617"/>
<use xlink:href="#glyph-0-1" x="907.621094" y="554.557617"/>
<use xlink:href="#glyph-0-1" x="912.621094" y="554.557617"/>
</g>
<g fill="rgb(0%, 0%, 0%)" fill-opacity="1">
<use xlink:href="#glyph-1-1" x="530.835938" y="566.990234"/>
<use xlink:href="#glyph-1-2" x="537.835938" y="566.990234"/>
<use xlink:href="#glyph-1-3" x="539.835938" y="566.990234"/>
<use xlink:href="#glyph-1-4" x="542.835938" y="566.990234"/>
<use xlink:href="#glyph-1-5" x="548.835938" y="566.990234"/>
<use xlink:href="#glyph-1-6" x="552.835938" y="566.990234"/>
<use xlink:href="#glyph-1-7" x="558.835938" y="566.990234"/>
<use xlink:href="#glyph-1-8" x="561.835938" y="566.990234"/>
<use xlink:href="#glyph-1-9" x="565.835938" y="566.990234"/>
<use xlink:href="#glyph-1-10" x="571.835938" y="566.990234"/>
<use xlink:href="#glyph-1-11" x="580.835938" y="566.990234"/>
</g>
<g fill="rgb(0%, 0%, 0%)" fill-opacity="1">
<use xlink:href="#glyph-2-1" x="12.951172" y="344.902344"/>
<use xlink:href="#glyph-2-2" x="12.951172" y="336.902344"/>
<use xlink:href="#glyph-2-3" x="12.951172" y="330.902344"/>
<use xlink:href="#glyph-2-4" x="12.951172" y="324.902344"/>
<use xlink:href="#glyph-2-5" x="12.951172" y="318.902344"/>
<use xlink:href="#glyph-2-6" x="12.951172" y="316.902344"/>
<use xlink:href="#glyph-2-7" x="12.951172" y="310.902344"/>
<use xlink:href="#glyph-2-6" x="12.951172" y="304.902344"/>
<use xlink:href="#glyph-2-8" x="12.951172" y="298.902344"/>
<use xlink:href="#glyph-2-6" x="12.951172" y="295.902344"/>
<use xlink:href="#glyph-2-2" x="12.951172" y="289.902344"/>
<use xlink:href="#glyph-2-8" x="12.951172" y="283.902344"/>
<use xlink:href="#glyph-2-9" x="12.951172" y="280.902344"/>
<use xlink:href="#glyph-2-10" x="12.951172" y="273.902344"/>
<use xlink:href="#glyph-2-11" x="12.951172" y="269.902344"/>
<use xlink:href="#glyph-2-12" x="12.951172" y="263.902344"/>
<use xlink:href="#glyph-2-7" x="12.951172" y="257.902344"/>
<use xlink:href="#glyph-2-12" x="12.951172" y="251.902344"/>
<use xlink:href="#glyph-2-5" x="12.951172" y="245.902344"/>
<use xlink:href="#glyph-2-13" x="12.951172" y="243.902344"/>
<use xlink:href="#glyph-2-5" x="12.951172" y="241.902344"/>
<use xlink:href="#glyph-2-6" x="12.951172" y="239.902344"/>
<use xlink:href="#glyph-2-7" x="12.951172" y="233.902344"/>
<use xlink:href="#glyph-2-6" x="12.951172" y="227.902344"/>
</g>
<g fill="rgb(0%, 0%, 0%)" fill-opacity="1">
<use xlink:href="#glyph-3-1" x="41.152344" y="14.644531"/>
<use xlink:href="#glyph-3-2" x="50.152344" y="14.644531"/>
<use xlink:href="#glyph-3-3" x="53.152344" y="14.644531"/>
<use xlink:href="#glyph-3-4" x="57.152344" y="14.644531"/>
<use xlink:href="#glyph-3-5" x="64.152344" y="14.644531"/>
<use xlink:href="#glyph-3-6" x="68.152344" y="14.644531"/>
<use xlink:href="#glyph-3-7" x="75.152344" y="14.644531"/>
</g>
</svg>
